<mxfile host="app.diagrams.net" agent="Mozilla/5.0 (Windows NT 10.0; Win64; x64) AppleWebKit/537.36 (KHTML, like Gecko) Chrome/136.0.0.0 Safari/537.36" version="27.0.6">
  <diagram name="第 1 页" id="lQYfnCY94qpDnXvU4vli">
    <mxGraphModel dx="508" dy="934" grid="1" gridSize="10" guides="1" tooltips="1" connect="1" arrows="1" fold="1" page="1" pageScale="1" pageWidth="827" pageHeight="1169" math="0" shadow="0">
      <root>
        <mxCell id="0" />
        <mxCell id="1" parent="0" />
        <mxCell id="4lETdPTAdkZz2vYjW1MX-27" style="edgeStyle=orthogonalEdgeStyle;rounded=0;orthogonalLoop=1;jettySize=auto;html=1;" edge="1" parent="1" source="4lETdPTAdkZz2vYjW1MX-1" target="4lETdPTAdkZz2vYjW1MX-9">
          <mxGeometry relative="1" as="geometry">
            <Array as="points">
              <mxPoint x="90" y="520" />
              <mxPoint x="90" y="520" />
            </Array>
          </mxGeometry>
        </mxCell>
        <mxCell id="4lETdPTAdkZz2vYjW1MX-1" value="" style="shape=folder;fontStyle=1;spacingTop=10;tabWidth=40;tabHeight=14;tabPosition=left;html=1;whiteSpace=wrap;" vertex="1" parent="1">
          <mxGeometry x="30" y="230" width="160" height="220" as="geometry" />
        </mxCell>
        <mxCell id="4lETdPTAdkZz2vYjW1MX-2" value="Auth" style="text;align=center;fontStyle=1;verticalAlign=middle;spacingLeft=3;spacingRight=3;strokeColor=none;rotatable=0;points=[[0,0.5],[1,0.5]];portConstraint=eastwest;html=1;" vertex="1" parent="1">
          <mxGeometry x="70" y="250" width="80" height="26" as="geometry" />
        </mxCell>
        <mxCell id="4lETdPTAdkZz2vYjW1MX-4" value="" style="shape=folder;fontStyle=1;spacingTop=10;tabWidth=40;tabHeight=14;tabPosition=left;html=1;whiteSpace=wrap;" vertex="1" parent="1">
          <mxGeometry x="290" y="230" width="180" height="230" as="geometry" />
        </mxCell>
        <mxCell id="4lETdPTAdkZz2vYjW1MX-3" value="User" style="text;align=center;fontStyle=1;verticalAlign=middle;spacingLeft=3;spacingRight=3;strokeColor=none;rotatable=0;points=[[0,0.5],[1,0.5]];portConstraint=eastwest;html=1;" vertex="1" parent="1">
          <mxGeometry x="340" y="250" width="80" height="26" as="geometry" />
        </mxCell>
        <mxCell id="4lETdPTAdkZz2vYjW1MX-5" value="GoogleAuthService" style="shape=folder;fontStyle=1;spacingTop=10;tabWidth=40;tabHeight=14;tabPosition=left;html=1;whiteSpace=wrap;" vertex="1" parent="1">
          <mxGeometry x="45" y="280" width="130" height="70" as="geometry" />
        </mxCell>
        <mxCell id="4lETdPTAdkZz2vYjW1MX-6" value="LoginActivity" style="shape=folder;fontStyle=1;spacingTop=10;tabWidth=40;tabHeight=14;tabPosition=left;html=1;whiteSpace=wrap;" vertex="1" parent="1">
          <mxGeometry x="45" y="360" width="130" height="70" as="geometry" />
        </mxCell>
        <mxCell id="4lETdPTAdkZz2vYjW1MX-7" value="UserRepository" style="shape=folder;fontStyle=1;spacingTop=10;tabWidth=40;tabHeight=14;tabPosition=left;html=1;whiteSpace=wrap;" vertex="1" parent="1">
          <mxGeometry x="315" y="280" width="130" height="70" as="geometry" />
        </mxCell>
        <mxCell id="4lETdPTAdkZz2vYjW1MX-8" value="UserProfileVM" style="shape=folder;fontStyle=1;spacingTop=10;tabWidth=40;tabHeight=14;tabPosition=left;html=1;whiteSpace=wrap;" vertex="1" parent="1">
          <mxGeometry x="315" y="360" width="130" height="70" as="geometry" />
        </mxCell>
        <mxCell id="4lETdPTAdkZz2vYjW1MX-9" value="" style="shape=folder;fontStyle=1;spacingTop=10;tabWidth=40;tabHeight=14;tabPosition=left;html=1;whiteSpace=wrap;" vertex="1" parent="1">
          <mxGeometry x="30" y="585" width="160" height="230" as="geometry" />
        </mxCell>
        <mxCell id="4lETdPTAdkZz2vYjW1MX-10" value="search" style="text;align=center;fontStyle=1;verticalAlign=middle;spacingLeft=3;spacingRight=3;strokeColor=none;rotatable=0;points=[[0,0.5],[1,0.5]];portConstraint=eastwest;html=1;" vertex="1" parent="1">
          <mxGeometry x="70" y="605" width="80" height="26" as="geometry" />
        </mxCell>
        <mxCell id="4lETdPTAdkZz2vYjW1MX-11" value="FilterEngine" style="shape=folder;fontStyle=1;spacingTop=10;tabWidth=40;tabHeight=14;tabPosition=left;html=1;whiteSpace=wrap;" vertex="1" parent="1">
          <mxGeometry x="45" y="635" width="130" height="70" as="geometry" />
        </mxCell>
        <mxCell id="4lETdPTAdkZz2vYjW1MX-12" value="KeywordSearchVM" style="shape=folder;fontStyle=1;spacingTop=10;tabWidth=40;tabHeight=14;tabPosition=left;html=1;whiteSpace=wrap;" vertex="1" parent="1">
          <mxGeometry x="45" y="715" width="130" height="70" as="geometry" />
        </mxCell>
        <mxCell id="4lETdPTAdkZz2vYjW1MX-13" value="" style="shape=folder;fontStyle=1;spacingTop=10;tabWidth=40;tabHeight=14;tabPosition=left;html=1;whiteSpace=wrap;" vertex="1" parent="1">
          <mxGeometry x="290" y="585" width="160" height="230" as="geometry" />
        </mxCell>
        <mxCell id="4lETdPTAdkZz2vYjW1MX-14" value="favorites" style="text;align=center;fontStyle=1;verticalAlign=middle;spacingLeft=3;spacingRight=3;strokeColor=none;rotatable=0;points=[[0,0.5],[1,0.5]];portConstraint=eastwest;html=1;" vertex="1" parent="1">
          <mxGeometry x="330" y="605" width="80" height="26" as="geometry" />
        </mxCell>
        <mxCell id="4lETdPTAdkZz2vYjW1MX-15" value="FavoriteDao" style="shape=folder;fontStyle=1;spacingTop=10;tabWidth=40;tabHeight=14;tabPosition=left;html=1;whiteSpace=wrap;" vertex="1" parent="1">
          <mxGeometry x="305" y="635" width="130" height="70" as="geometry" />
        </mxCell>
        <mxCell id="4lETdPTAdkZz2vYjW1MX-16" value="FavoritesVM" style="shape=folder;fontStyle=1;spacingTop=10;tabWidth=40;tabHeight=14;tabPosition=left;html=1;whiteSpace=wrap;" vertex="1" parent="1">
          <mxGeometry x="305" y="715" width="130" height="70" as="geometry" />
        </mxCell>
        <mxCell id="4lETdPTAdkZz2vYjW1MX-17" value="" style="shape=folder;fontStyle=1;spacingTop=10;tabWidth=40;tabHeight=14;tabPosition=left;html=1;whiteSpace=wrap;" vertex="1" parent="1">
          <mxGeometry x="560" y="155" width="170" height="320" as="geometry" />
        </mxCell>
        <mxCell id="4lETdPTAdkZz2vYjW1MX-18" value="" style="shape=folder;fontStyle=1;spacingTop=10;tabWidth=40;tabHeight=14;tabPosition=left;html=1;whiteSpace=wrap;" vertex="1" parent="1">
          <mxGeometry x="570" y="605" width="160" height="230" as="geometry" />
        </mxCell>
        <mxCell id="4lETdPTAdkZz2vYjW1MX-19" value="MetroQAService&amp;nbsp;" style="shape=folder;fontStyle=1;spacingTop=10;tabWidth=40;tabHeight=14;tabPosition=left;html=1;whiteSpace=wrap;" vertex="1" parent="1">
          <mxGeometry x="580" y="201" width="130" height="70" as="geometry" />
        </mxCell>
        <mxCell id="4lETdPTAdkZz2vYjW1MX-20" value="RoutePlanner" style="shape=folder;fontStyle=1;spacingTop=10;tabWidth=40;tabHeight=14;tabPosition=left;html=1;whiteSpace=wrap;" vertex="1" parent="1">
          <mxGeometry x="580" y="295" width="130" height="70" as="geometry" />
        </mxCell>
        <mxCell id="4lETdPTAdkZz2vYjW1MX-21" value="ItineraryPlanner" style="shape=folder;fontStyle=1;spacingTop=10;tabWidth=40;tabHeight=14;tabPosition=left;html=1;whiteSpace=wrap;" vertex="1" parent="1">
          <mxGeometry x="580" y="385" width="130" height="70" as="geometry" />
        </mxCell>
        <mxCell id="4lETdPTAdkZz2vYjW1MX-22" value="AI" style="text;align=center;fontStyle=1;verticalAlign=middle;spacingLeft=3;spacingRight=3;strokeColor=none;rotatable=0;points=[[0,0.5],[1,0.5]];portConstraint=eastwest;html=1;" vertex="1" parent="1">
          <mxGeometry x="605" y="175" width="80" height="26" as="geometry" />
        </mxCell>
        <mxCell id="4lETdPTAdkZz2vYjW1MX-23" value="itinerary" style="text;align=center;fontStyle=1;verticalAlign=middle;spacingLeft=3;spacingRight=3;strokeColor=none;rotatable=0;points=[[0,0.5],[1,0.5]];portConstraint=eastwest;html=1;" vertex="1" parent="1">
          <mxGeometry x="610" y="620" width="80" height="26" as="geometry" />
        </mxCell>
        <mxCell id="4lETdPTAdkZz2vYjW1MX-24" value="ItineraryDao" style="shape=folder;fontStyle=1;spacingTop=10;tabWidth=40;tabHeight=14;tabPosition=left;html=1;whiteSpace=wrap;" vertex="1" parent="1">
          <mxGeometry x="585" y="660" width="130" height="70" as="geometry" />
        </mxCell>
        <mxCell id="4lETdPTAdkZz2vYjW1MX-25" value="ItineraryVM" style="shape=folder;fontStyle=1;spacingTop=10;tabWidth=40;tabHeight=14;tabPosition=left;html=1;whiteSpace=wrap;" vertex="1" parent="1">
          <mxGeometry x="585" y="740" width="130" height="70" as="geometry" />
        </mxCell>
        <mxCell id="4lETdPTAdkZz2vYjW1MX-26" style="edgeStyle=orthogonalEdgeStyle;rounded=0;orthogonalLoop=1;jettySize=auto;html=1;entryX=0.5;entryY=1;entryDx=0;entryDy=0;entryPerimeter=0;" edge="1" parent="1">
          <mxGeometry relative="1" as="geometry">
            <mxPoint x="130" y="585" as="sourcePoint" />
            <mxPoint x="130" y="450" as="targetPoint" />
          </mxGeometry>
        </mxCell>
        <mxCell id="4lETdPTAdkZz2vYjW1MX-28" value="依賴" style="text;align=center;fontStyle=1;verticalAlign=middle;spacingLeft=3;spacingRight=3;strokeColor=none;rotatable=0;points=[[0,0.5],[1,0.5]];portConstraint=eastwest;html=1;" vertex="1" parent="1">
          <mxGeometry x="120" y="510" width="80" height="26" as="geometry" />
        </mxCell>
        <mxCell id="4lETdPTAdkZz2vYjW1MX-29" style="edgeStyle=orthogonalEdgeStyle;rounded=0;orthogonalLoop=1;jettySize=auto;html=1;" edge="1" parent="1">
          <mxGeometry relative="1" as="geometry">
            <mxPoint x="359" y="460" as="sourcePoint" />
            <mxPoint x="359" y="595" as="targetPoint" />
            <Array as="points">
              <mxPoint x="359" y="530" />
              <mxPoint x="359" y="530" />
            </Array>
          </mxGeometry>
        </mxCell>
        <mxCell id="4lETdPTAdkZz2vYjW1MX-30" style="edgeStyle=orthogonalEdgeStyle;rounded=0;orthogonalLoop=1;jettySize=auto;html=1;entryX=0.5;entryY=1;entryDx=0;entryDy=0;entryPerimeter=0;" edge="1" parent="1">
          <mxGeometry relative="1" as="geometry">
            <mxPoint x="399" y="595" as="sourcePoint" />
            <mxPoint x="399" y="460" as="targetPoint" />
            <Array as="points">
              <mxPoint x="399" y="530" />
              <mxPoint x="399" y="530" />
            </Array>
          </mxGeometry>
        </mxCell>
        <mxCell id="4lETdPTAdkZz2vYjW1MX-31" value="依賴" style="text;align=center;fontStyle=1;verticalAlign=middle;spacingLeft=3;spacingRight=3;strokeColor=none;rotatable=0;points=[[0,0.5],[1,0.5]];portConstraint=eastwest;html=1;" vertex="1" parent="1">
          <mxGeometry x="389" y="520" width="80" height="26" as="geometry" />
        </mxCell>
        <mxCell id="4lETdPTAdkZz2vYjW1MX-32" style="edgeStyle=orthogonalEdgeStyle;rounded=0;orthogonalLoop=1;jettySize=auto;html=1;" edge="1" parent="1">
          <mxGeometry relative="1" as="geometry">
            <mxPoint x="630" y="480" as="sourcePoint" />
            <mxPoint x="630" y="615" as="targetPoint" />
            <Array as="points">
              <mxPoint x="630" y="550" />
              <mxPoint x="630" y="550" />
            </Array>
          </mxGeometry>
        </mxCell>
        <mxCell id="4lETdPTAdkZz2vYjW1MX-33" style="edgeStyle=orthogonalEdgeStyle;rounded=0;orthogonalLoop=1;jettySize=auto;html=1;entryX=0.5;entryY=1;entryDx=0;entryDy=0;entryPerimeter=0;" edge="1" parent="1">
          <mxGeometry relative="1" as="geometry">
            <mxPoint x="670" y="615" as="sourcePoint" />
            <mxPoint x="670" y="480" as="targetPoint" />
          </mxGeometry>
        </mxCell>
        <mxCell id="4lETdPTAdkZz2vYjW1MX-34" value="依賴" style="text;align=center;fontStyle=1;verticalAlign=middle;spacingLeft=3;spacingRight=3;strokeColor=none;rotatable=0;points=[[0,0.5],[1,0.5]];portConstraint=eastwest;html=1;" vertex="1" parent="1">
          <mxGeometry x="660" y="540" width="80" height="26" as="geometry" />
        </mxCell>
        <mxCell id="4lETdPTAdkZz2vYjW1MX-36" style="edgeStyle=orthogonalEdgeStyle;rounded=0;orthogonalLoop=1;jettySize=auto;html=1;entryX=-0.004;entryY=0.481;entryDx=0;entryDy=0;entryPerimeter=0;" edge="1" parent="1" source="4lETdPTAdkZz2vYjW1MX-1" target="4lETdPTAdkZz2vYjW1MX-4">
          <mxGeometry relative="1" as="geometry" />
        </mxCell>
      </root>
    </mxGraphModel>
  </diagram>
</mxfile>
